<svg width="92" height="103" viewBox="0 0 92 103" fill="none" xmlns="http://www.w3.org/2000/svg">
<path d="M92.004 53.5C92.004 78.9051 49.9091 103 24.504 103C-0.901093 103 0.00400423 78.9051 0.00400423 53.5C0.00400423 28.0949 -0.901093 0 24.504 0C49.9091 0 92.004 28.0949 92.004 53.5Z" fill="#FF3333"/>
<path d="M16.5239 58.2L16.7339 52.005H14.3889C14.2022 52.005 14.1089 51.935 14.1089 51.795C14.1089 51.375 14.3072 50.8967 14.7039 50.36C15.1006 49.8 15.5322 49.52 15.9989 49.52H16.7339C16.6872 47.7 16.6406 46.3933 16.5939 45.6C16.5006 44.1767 16.2672 43.08 15.8939 42.31L15.7189 41.96C15.6256 41.8433 15.5789 41.7033 15.5789 41.54C15.5789 41.3767 15.7072 41.2367 15.9639 41.12C16.2206 41.0033 16.5939 40.8633 17.0839 40.7C17.5972 40.5367 18.6706 40.3267 20.3039 40.07C21.9372 39.79 23.7106 39.65 25.6239 39.65C27.5606 39.65 28.6106 39.79 28.7739 40.07C28.9606 40.35 29.0539 40.7933 29.0539 41.4C29.0539 41.9833 28.9722 42.275 28.8089 42.275C28.7856 42.275 28.7039 42.2633 28.5639 42.24C28.1906 42.1467 27.6189 42.1 26.8489 42.1C26.0789 42.1 25.2506 42.17 24.3639 42.31C23.4772 42.45 22.8006 42.59 22.3339 42.73L21.6689 42.975C21.4822 43.0217 21.3422 43.185 21.2489 43.465C21.0622 44.8417 20.9689 46.86 20.9689 49.52H26.6389C26.8489 49.52 26.9539 49.59 26.9539 49.73C26.9539 50.15 26.7672 50.64 26.3939 51.2C26.0206 51.76 25.6006 52.04 25.1339 52.04L20.9689 52.005L21.2139 62.505C21.2139 63.0183 21.1322 63.3917 20.9689 63.625C20.5256 64.2083 19.7672 64.64 18.6939 64.92C17.6439 65.2233 16.7689 65.375 16.0689 65.375C15.8822 65.375 15.7889 65.2583 15.7889 65.025C15.7889 64.9083 15.8006 64.815 15.8239 64.745C16.1039 64.3483 16.3372 62.1667 16.5239 58.2ZM37.2868 46.09C37.3335 46.23 37.4035 46.3 37.4968 46.3C37.5902 46.3 37.6835 46.2533 37.7768 46.16C38.8268 45.1567 39.3518 44.13 39.3518 43.08C39.3518 42.59 39.2235 42.2283 38.9668 41.995C38.7102 41.7383 38.3602 41.61 37.9168 41.61C37.4968 41.61 37.1585 41.785 36.9018 42.135C36.6452 42.485 36.5168 43.01 36.5168 43.71C36.5168 44.3867 36.7735 45.18 37.2868 46.09ZM38.0568 62.225C39.1302 62.225 40.0985 62.0033 40.9618 61.56C39.9118 59.8333 38.8268 57.7567 37.7068 55.33C36.5868 52.9033 35.9918 51.6317 35.9218 51.515C35.8518 51.3983 35.7935 51.34 35.7468 51.34L35.5368 51.445C34.1135 52.7983 33.4018 54.6533 33.4018 57.01C33.4018 58.5033 33.7868 59.7517 34.5568 60.755C35.3502 61.735 36.5168 62.225 38.0568 62.225ZM34.6268 49.03C34.6735 48.9833 34.6968 48.925 34.6968 48.855C34.6968 48.785 34.6735 48.7033 34.6268 48.61C33.8335 47.1633 33.4368 45.7633 33.4368 44.41C33.4368 43.0567 33.9035 41.9483 34.8368 41.085C35.7935 40.2217 37.0302 39.79 38.5468 39.79C39.1768 39.79 39.7952 39.9067 40.4018 40.14C41.5452 40.5833 42.1168 41.4467 42.1168 42.73C42.1168 44.4333 40.9502 46.3583 38.6168 48.505C38.5702 48.5517 38.5468 48.5983 38.5468 48.645C39.8768 51.7717 41.5685 55.015 43.6218 58.375C43.9952 57.3017 44.1818 56.1233 44.1818 54.84C44.1352 53.9533 43.9368 53.3 43.5868 52.88C43.5402 52.81 43.5168 52.74 43.5168 52.67C43.5168 52.3433 43.9952 52.18 44.9518 52.18C45.9085 52.18 46.5268 52.355 46.8068 52.705C47.1102 53.055 47.2618 53.615 47.2618 54.385C47.2618 56.8117 46.5968 58.9817 45.2668 60.895C46.4102 62.5283 47.3202 63.4033 47.9968 63.52C48.2068 63.59 48.3118 63.73 48.3118 63.94C48.3352 64.1267 48.1718 64.29 47.8218 64.43C46.7018 64.8967 45.8385 65.13 45.2318 65.13C44.2752 65.13 43.5868 64.9433 43.1668 64.57C43.0035 64.4067 42.7352 64.115 42.3618 63.695C40.8918 64.605 39.2935 65.06 37.5668 65.06C35.1868 65.06 33.2152 64.4533 31.6518 63.24C30.1118 62.0033 29.3418 60.23 29.3418 57.92C29.3418 54.8167 30.9868 51.9467 34.2768 49.31L34.6268 49.03ZM61.4762 52.075C61.7095 51.4917 61.8962 50.8967 62.0362 50.29C62.1995 49.66 62.2812 49.0883 62.2812 48.575C62.2812 48.0383 62.0945 47.0583 61.7212 45.635C61.0679 43.255 60.5079 41.8433 60.0412 41.4L59.8312 41.155C59.5979 41.015 59.4812 40.8517 59.4812 40.665C59.4812 40.2683 60.0062 39.93 61.0562 39.65C62.1062 39.37 62.9579 39.23 63.6112 39.23C64.2879 39.23 64.6845 39.4283 64.8012 39.825C65.0812 40.6883 65.3845 41.9367 65.7112 43.57C66.0612 45.2033 66.3529 46.615 66.5862 47.805C66.8429 48.9717 67.0412 49.87 67.1812 50.5C67.3212 51.13 67.5079 51.9467 67.7412 52.95C68.1845 54.8167 68.6279 56.345 69.0712 57.535C69.2112 57.8617 69.3745 58.025 69.5612 58.025C69.7712 58.025 69.9812 57.8267 70.1912 57.43C70.4245 57.01 70.7279 56.4267 71.1012 55.68C71.4979 54.91 72.0112 53.5567 72.6412 51.62C73.2945 49.6833 73.6212 48.0033 73.6212 46.58C73.6212 44.3867 72.8979 42.835 71.4512 41.925C71.3345 41.785 71.2762 41.6333 71.2762 41.47C71.2762 41.3067 71.3579 41.1433 71.5212 40.98C71.6845 40.8633 71.9179 40.7117 72.2212 40.525C72.5245 40.315 73.1312 40.0583 74.0412 39.755C74.9512 39.4283 75.7679 39.265 76.4912 39.265C77.2145 39.265 77.6462 39.37 77.7862 39.58C77.9262 39.7667 77.9962 40.1167 77.9962 40.63C77.9962 42.8933 77.3195 45.9033 75.9662 49.66C74.6362 53.3933 73.2129 56.695 71.6962 59.565C70.2029 62.4117 69.0829 64.1967 68.3362 64.92C67.9395 65.27 67.7062 65.445 67.6362 65.445C67.4262 65.445 67.2279 65.2817 67.0412 64.955C66.2479 63.625 65.3845 61.0233 64.4512 57.15C64.0312 55.33 63.7862 54.3033 63.7162 54.07C63.6462 53.8367 63.5879 53.72 63.5412 53.72C63.4245 53.72 63.3195 53.8367 63.2262 54.07C62.4095 55.96 61.4995 57.815 60.4962 59.635C59.4929 61.4317 58.6879 62.7617 58.0812 63.625L57.2062 64.92C56.9729 65.2467 56.7395 65.41 56.5062 65.41C56.2729 65.41 56.0629 65.2583 55.8762 64.955C55.2462 63.765 54.4762 61.4667 53.5662 58.06L53.1112 56.31C53.0179 55.9833 52.8079 55.0967 52.4812 53.65C51.2445 48.12 50.2995 44.6667 49.6462 43.29C49.2729 42.52 48.9462 42.0183 48.6662 41.785C48.4095 41.5517 48.1995 41.4117 48.0362 41.365C47.7795 41.2483 47.6512 41.1083 47.6512 40.945C47.6512 40.7583 47.7445 40.5833 47.9312 40.42C48.2112 40.21 48.8295 39.965 49.7862 39.685C50.7429 39.3817 51.5479 39.23 52.2012 39.23C52.8545 39.23 53.2395 39.4283 53.3562 39.825C53.8229 40.6883 54.3712 42.625 55.0012 45.635C56.3312 51.935 57.3112 55.9017 57.9412 57.535C58.0579 57.8617 58.2212 58.025 58.4312 58.025C58.6412 58.025 58.8279 57.85 58.9912 57.5C59.2012 57.29 59.6095 56.485 60.2162 55.085C60.8462 53.6617 61.2662 52.6583 61.4762 52.075Z" fill="white"/>
</svg>
